<svg xmlns="http://www.w3.org/2000/svg" width="960" height="586" viewBox="0 0 960 586" role="img" aria-labelledby="column-chart-title column-chart-subtitle" font-family="Segoe UI, Helvetica, Arial, sans-serif"><rect width="100%" height="100%" fill="#ffffff" /><text id="column-chart-title" x="480" y="42" font-size="24" font-weight="700" fill="#0f172a" text-anchor="middle">Mean error penalty per sentence</text><text id="column-chart-subtitle" x="480" y="70" font-size="14" fill="#64748b" text-anchor="middle">Korean → EN / JA / ZH-Hans · 216 multi-turn samples × 3 languages · GEMBA-MQM evaluation · Lower is better</text><line x1="70" y1="430" x2="930" y2="430" stroke="#e2e8f0" stroke-width="1" /><text x="58" y="435" font-size="13" fill="#64748b" text-anchor="end">0</text><line x1="70" y1="326.6666666666667" x2="930" y2="326.6666666666667" stroke="#e2e8f0" stroke-width="1" /><text x="58" y="331.6666666666667" font-size="13" fill="#64748b" text-anchor="end">2</text><line x1="70" y1="223.33333333333334" x2="930" y2="223.33333333333334" stroke="#e2e8f0" stroke-width="1" /><text x="58" y="228.33333333333334" font-size="13" fill="#64748b" text-anchor="end">4</text><line x1="70" y1="120" x2="930" y2="120" stroke="#e2e8f0" stroke-width="1" /><text x="58" y="125" font-size="13" fill="#64748b" text-anchor="end">6</text><line x1="70" y1="120" x2="70" y2="430" stroke="#94a3b8" stroke-width="1.5" /><line x1="70" y1="430" x2="930" y2="430" stroke="#94a3b8" stroke-width="1.5" /><g data-participant-id="gemma4-31b"><rect x="86.3" y="411.7" width="53.3" height="18.3" fill="#2563eb" /><text x="113.0" y="403.7" font-size="15" font-weight="700" fill="#0f172a" text-anchor="middle">0.35</text><text x="113.0" y="444.0" font-size="13" fill="#334155" text-anchor="end" transform="rotate(-45 113.0 444)">Gemma 4 31B</text></g><g data-participant-id="gemma-4-26b-openrouter"><rect x="172.3" y="410.0" width="53.3" height="20.0" fill="#2563eb" /><text x="199.0" y="402.0" font-size="15" font-weight="700" fill="#0f172a" text-anchor="middle">0.39</text><text x="199.0" y="444.0" font-size="13" fill="#334155" text-anchor="end" transform="rotate(-45 199.0 444)">Gemma 4 26B</text></g><g data-participant-id="deepseek-v4-flash-0731-openrouter"><rect x="258.3" y="400.5" width="53.3" height="29.5" fill="#2563eb" /><text x="285.0" y="392.5" font-size="15" font-weight="700" fill="#0f172a" text-anchor="middle">0.57</text><text x="285.0" y="444.0" font-size="13" fill="#334155" text-anchor="end" transform="rotate(-45 285.0 444)">DeepSeek V4F 0731</text></g><g data-participant-id="gemma4-e4b-fp16"><rect x="344.3" y="360.1" width="53.3" height="69.9" fill="#2563eb" /><text x="371.0" y="352.1" font-size="15" font-weight="700" fill="#0f172a" text-anchor="middle">1.35</text><text x="371.0" y="444.0" font-size="13" fill="#334155" text-anchor="end" transform="rotate(-45 371.0 444)">Gemma 4 E4B fp16</text></g><g data-participant-id="gemma4-e4b-qat-q4"><rect x="430.3" y="348.5" width="53.3" height="81.5" fill="#2563eb" /><text x="457.0" y="340.5" font-size="15" font-weight="700" fill="#0f172a" text-anchor="middle">1.58</text><text x="457.0" y="444.0" font-size="13" fill="#334155" text-anchor="end" transform="rotate(-45 457.0 444)">Gemma 4 E4B QAT Q4</text></g><g data-participant-id="papago-web"><rect x="516.3" y="290.5" width="53.3" height="139.5" fill="#f59e0b" /><text x="543.0" y="282.5" font-size="15" font-weight="700" fill="#0f172a" text-anchor="middle">2.70</text><text x="543.0" y="444.0" font-size="13" fill="#334155" text-anchor="end" transform="rotate(-45 543.0 444)">Papago</text></g><g data-participant-id="milmmt-4b-native"><rect x="602.3" y="270.5" width="53.3" height="159.5" fill="#2dd4bf" /><text x="629.0" y="262.5" font-size="15" font-weight="700" fill="#0f172a" text-anchor="middle">3.09</text><text x="629.0" y="444.0" font-size="13" fill="#334155" text-anchor="end" transform="rotate(-45 629.0 444)">MiLMMT X0</text></g><g data-participant-id="gemini35-live-translate-two-voice"><rect x="688.3" y="237.7" width="53.3" height="192.3" fill="#2563eb" /><text x="715.0" y="229.7" font-size="15" font-weight="700" fill="#0f172a" text-anchor="middle">3.72</text><text x="715.0" y="444.0" font-size="13" fill="#334155" text-anchor="end" transform="rotate(-45 715.0 444)">Gemini 3.5 Live Translate (Audio-native Two Voice)</text></g><g data-participant-id="deepl-api"><rect x="774.3" y="227.8" width="53.3" height="202.2" fill="#f59e0b" /><text x="801.0" y="219.8" font-size="15" font-weight="700" fill="#0f172a" text-anchor="middle">3.91</text><text x="801.0" y="444.0" font-size="13" fill="#334155" text-anchor="end" transform="rotate(-45 801.0 444)">DeepL</text></g><g data-participant-id="google-cloud-translate-basic"><rect x="860.3" y="133.9" width="53.3" height="296.1" fill="#f59e0b" /><text x="887.0" y="125.9" font-size="15" font-weight="700" fill="#0f172a" text-anchor="middle">5.73</text><text x="887.0" y="444.0" font-size="13" fill="#334155" text-anchor="end" transform="rotate(-45 887.0 444)">Google Basic</text></g><text x="70" y="570" font-size="13" fill="#64748b" text-anchor="start">Judge model: GEMBA-MQM automated judge (high reasoning effort)</text></svg>
